<svg width="20" height="20" viewBox="0 0 20 20" fill="none" xmlns="http://www.w3.org/2000/svg">
<path d="M15.4302 2.164C18.0569 2.67 17.6235 3.93547 18.3081 5.95947C19.5074 7.75407 20.7133 8.22689 19.4873 10.6141C19.1054 11.2753 18.9698 12.0521 19.1044 12.806L19.1046 12.8064C19.5615 16.276 16.9177 15.3344 15.7552 17.6252C14.4872 19.9827 13.3895 19.1739 11.2736 19.1981C10.2905 19.3527 9.28999 20.1707 8.23593 19.9679C7.16355 19.7911 6.5106 18.678 5.65295 18.1776C3.67608 17.4221 2.39356 17.7846 1.99564 15.1496C1.92008 14.3874 1.57819 13.676 1.03103 13.1419C-0.804623 11.1654 0.238624 10.3908 0.89987 8.34363C1.00808 6.20305 0.246358 5.11589 2.63794 3.91592C3.15302 3.69179 3.59808 3.33212 3.92607 2.87449L4.61962 1.76497C5.68925 0.0806766 7.16511 0.876712 8.72267 0.793905C10.2496 0.454438 11.4444 -0.708744 12.937 0.625767L13.9069 1.50726C14.347 1.85989 14.8735 2.0867 15.4302 2.164Z" fill="#1F57C3"/>
<path d="M13.5919 6.61721L15.424 8.43853L8.70627 15.1167L6.87417 13.2954L13.5919 6.61721Z" fill="white"/>
<path d="M6.87417 9.65274L10.5384 13.2954L8.70627 15.1167L5.04207 11.4741L6.87417 9.65274Z" fill="white"/>
</svg>
