<svg width="22" height="28" viewBox="0 0 22 28" fill="none" xmlns="http://www.w3.org/2000/svg">
<g clip-path="url(#clip0_838_1075)">
<path fill-rule="evenodd" clip-rule="evenodd" d="M9.10859 5.46623C10.0363 5.10462 11.0534 5.01484 12.0324 5.20669C13.0114 5.39855 13.9152 5.86483 14.6276 6.55299C15.34 7.24157 15.8293 8.12211 16.0261 9.08607C16.2229 10.0503 16.1169 11.0483 15.7238 11.9524C15.3308 12.8559 14.6706 13.6208 13.8327 14.1558C12.9958 14.6905 12.0163 14.9734 11.0178 14.9735C10.3498 14.9735 9.6872 14.8468 9.06806 14.5996C8.44892 14.3525 7.88447 13.9892 7.4079 13.5288C6.93134 13.0683 6.55244 12.5195 6.29511 11.913C6.0373 11.3064 5.90742 10.6554 5.91328 9.998C5.92207 9.01453 6.23457 8.05944 6.80634 7.25318C7.37763 6.44746 8.17988 5.82794 9.10859 5.46623ZM13.2375 7.99119C12.8088 7.57672 12.2565 7.2886 11.6477 7.16937C11.0393 7.05012 10.4079 7.10645 9.83466 7.32977C9.26142 7.55297 8.77753 7.93099 8.43818 8.40977C8.09882 8.88798 7.91816 9.44683 7.91328 10.016C7.90986 10.3971 7.98505 10.7761 8.13593 11.1316C8.28681 11.4872 8.51093 11.8136 8.79755 12.0906C9.08466 12.3677 9.42792 12.5899 9.80976 12.7422C10.1911 12.8946 10.6023 12.9735 11.0178 12.9735C11.6398 12.9735 12.2448 12.7968 12.7561 12.4702C13.2673 12.1439 13.6594 11.6844 13.8894 11.1547C14.1198 10.6255 14.1804 10.0456 14.0661 9.48608C13.9519 8.92622 13.6662 8.40522 13.2375 7.99119Z" fill="#F9A646"/>
<path fill-rule="evenodd" clip-rule="evenodd" d="M11 0C12.7476 0 14.4707 0.407852 16.0205 1.19043C17.5693 1.97244 18.9004 3.10623 19.8965 4.49739C20.9678 5.97063 21.6562 7.67236 21.9009 9.45972C21.9663 9.93835 21.999 10.4191 22 10.899C22 10.9122 22 10.9253 22 10.9384C21.9976 12.2388 21.7603 13.5324 21.2944 14.7603L21.2905 14.7697L21.2871 14.779C20.9019 15.7352 20.353 16.6208 19.6646 17.3994L15.5713 22.2337L15.5669 22.2389L15.0054 22.9117L15 22.9181L14.9946 22.9243L11.0142 27.5341L7.04199 22.8921L6.48047 22.2529L6.47559 22.2476L6.47119 22.2422L2.33691 17.4011C1.64746 16.622 1.09814 15.7359 0.712891 14.779L0.709473 14.7697L0.705566 14.7603C0.239746 13.5324 0.00244141 12.2388 0 10.9384C0 10.9253 0 10.9122 0 10.899C0.000976562 10.4191 0.0336914 9.93835 0.0991211 9.45972C0.34375 7.67235 1.03223 5.97058 2.10352 4.49734C3.09961 3.10622 4.43066 1.97244 5.97949 1.19043C7.5293 0.407852 9.25244 0 11 0ZM15.1191 2.97575C13.8511 2.33565 12.4375 2 11 2C9.5625 2 8.14893 2.33565 6.88086 2.97575C5.61328 3.61578 4.53223 4.53978 3.72803 5.66429L3.72314 5.67102C2.8418 6.88156 2.27979 8.274 2.08105 9.73047C1.88232 11.1835 2.05029 12.6615 2.57227 14.0414C2.87158 14.7825 3.2998 15.4723 3.83984 16.0814L3.8457 16.0883L3.85205 16.0954L7.9873 20.9379L8.54883 21.5767L8.55762 21.5867L11.021 24.4659L13.4756 21.6235L14.0361 20.9518L14.0405 20.9466L18.1455 16.0986L18.1528 16.0899L18.1602 16.0814C18.7002 15.4723 19.1284 14.7825 19.4277 14.0414C19.9497 12.6615 20.1177 11.1835 19.9189 9.73047C19.7202 8.274 19.1582 6.88156 18.2769 5.67104L18.272 5.66426C17.4678 4.53978 16.3867 3.61578 15.1191 2.97575Z" fill="#F9A646"/>
</g>
<defs>
<clipPath id="clip0_838_1075">
<rect width="22" height="28" fill="white"/>
</clipPath>
</defs>
</svg>
