<svg width="30" height="30" viewBox="0 0 30 30" fill="none" xmlns="http://www.w3.org/2000/svg">
<path fill-rule="evenodd" clip-rule="evenodd" d="M7.75586 3.75854C9.3541 3.17625 11.091 2.85698 12.907 2.85698C20.806 2.85698 27.2093 8.8976 27.2093 16.3491C27.2093 19.4415 26.1065 22.2909 24.2515 24.5665C25.9858 25.0957 27.614 25.397 29.9992 25.7144C28.4335 23.0148 27.9301 21.512 27.9062 18.7745C29.2298 16.868 29.9992 14.59 29.9992 12.1429C29.9992 5.43656 24.2206 0 17.0922 0C13.4201 0 10.1062 1.44272 7.75586 3.75854Z" fill="#F9A850"/>
<path fill-rule="evenodd" clip-rule="evenodd" d="M25.814 16.428C25.814 23.1344 20.0353 28.5709 12.907 28.5709C11.3724 28.5709 9.9004 28.319 8.53512 27.8566C5.45205 29.0838 3.5773 29.5235 0 29.9995C1.56572 27.2999 2.0691 25.7971 2.09302 23.0597C0.769399 21.1531 0 18.8751 0 16.428C0 9.72171 5.77865 4.28516 12.907 4.28516C20.0353 4.28516 25.814 9.72171 25.814 16.428ZM5.90625 18.9995C7.28696 18.9995 8.40625 17.8802 8.40625 16.4995C8.40625 15.1188 7.28696 13.9995 5.90625 13.9995C4.52554 13.9995 3.40625 15.1188 3.40625 16.4995C3.40625 17.8802 4.52554 18.9995 5.90625 18.9995ZM15.4062 16.4995C15.4062 17.8802 14.287 18.9995 12.9062 18.9995C11.5255 18.9995 10.4062 17.8802 10.4062 16.4995C10.4062 15.1188 11.5255 13.9995 12.9062 13.9995C14.287 13.9995 15.4062 15.1188 15.4062 16.4995ZM19.9062 18.9995C21.287 18.9995 22.4062 17.8802 22.4062 16.4995C22.4062 15.1188 21.287 13.9995 19.9062 13.9995C18.5255 13.9995 17.4062 15.1188 17.4062 16.4995C17.4062 17.8802 18.5255 18.9995 19.9062 18.9995Z" fill="#F9A850"/>
</svg>
