<svg width="25" height="25" viewBox="0 0 25 25" fill="none" xmlns="http://www.w3.org/2000/svg">
<path fill-rule="evenodd" clip-rule="evenodd" d="M12.5 25C19.4036 25 25 19.4036 25 12.5C25 5.59644 19.4036 0 12.5 0C5.59644 0 0 5.59644 0 12.5C0 19.4036 5.59644 25 12.5 25ZM12.9276 2.5C16.3765 2.5 19.1665 5.32215 19.1665 8.81114L19.1667 8.81102C19.1667 11.9 16.9258 14.5 14.0261 15.0333V17.1222H17.3433V19.1445H14.0261V22.5H12.027V19.1445H8.70986V17.1222H12.0049V15.0556C8.99524 14.6112 6.66667 11.9888 6.66667 8.81114C6.66667 5.32211 9.4785 2.49985 12.9276 2.5ZM12.9056 4.45556C10.5331 4.45556 8.59986 6.41113 8.59986 8.81114C8.59986 11.2109 10.5331 13.1666 12.9056 13.1667C15.2781 13.1667 17.2113 11.2111 17.2113 8.81114C17.2113 6.41117 15.2782 4.45556 12.9056 4.45556Z" fill="#F9A850"/>
</svg>
