<svg width="18" height="23" viewBox="0 0 18 23" fill="none" xmlns="http://www.w3.org/2000/svg">
<path opacity="0.7" d="M1.31768 16.755C1.11263 16.4575 1.00027 16.0997 1 15.7299V7.27015C1.00031 6.85873 1.13934 6.46215 1.39037 6.14699M1.31768 16.755C1.37281 16.835 1.43463 16.9106 1.50278 16.9809C1.82429 17.3128 2.26036 17.4995 2.71513 17.5H15.2849C15.7396 17.4995 16.1757 17.3128 16.4972 16.9809C16.5654 16.9106 16.6272 16.835 16.6823 16.755M1.31768 16.755C1.34911 16.6367 5.18761 13.3733 7.10293 11.7565M7.10293 11.7565L7.69408 12.3347C8.04682 12.6794 8.51414 12.8715 9.00003 12.8715C9.48591 12.8715 9.95324 12.6794 10.306 12.3347L10.8971 11.7565M7.10293 11.7565L1.7895 6.55882L1.39037 6.14699M16.6823 16.755C16.8874 16.4575 16.9997 16.0997 17 15.7299V7.27015C16.9997 6.8586 16.8606 6.4619 16.6094 6.14669M16.6823 16.755L10.8971 11.7565M10.8971 11.7565L16.2106 6.55822L16.6094 6.14669M1.39037 6.14699C1.42565 6.10269 1.46315 6.06 1.50278 6.01911C1.82429 5.68715 2.26036 5.50047 2.71513 5.5H15.2849C15.7396 5.50045 16.1757 5.68716 16.4972 6.01911C16.5368 6.05991 16.5742 6.1025 16.6094 6.14669" stroke="white"/>
</svg>
