<svg width="30" height="30" viewBox="0 0 30 30" fill="none" xmlns="http://www.w3.org/2000/svg">
<path d="M15 0C6.70808 0 0 6.70807 0 15C0 23.2919 6.70808 30 15 30C23.2919 30 30 23.2919 30 15C30 6.70807 23.2919 0 15 0ZM22.4224 15.8696H15.6522V22.6397C15.6522 23.1055 15.2796 23.4783 14.8136 23.4783C14.3479 23.4783 13.975 23.1057 13.975 22.6397V15.8696H7.23591C6.77016 15.8696 6.39735 15.497 6.39735 15.031C6.39735 14.5653 6.76995 14.1924 7.23591 14.1924H14.0061V7.42225C14.0061 6.9565 14.3787 6.58368 14.8447 6.58368C15.3104 6.58368 15.6832 6.95629 15.6832 7.42225V14.1924H22.4534C22.9192 14.1924 23.292 14.565 23.292 15.031C23.261 15.497 22.8882 15.8696 22.4224 15.8696H22.4224Z" fill="#F9A850"/>
</svg>
