<svg width="18" height="23" viewBox="0 0 18 23" fill="none" xmlns="http://www.w3.org/2000/svg">
<path opacity="0.7" fill-rule="evenodd" clip-rule="evenodd" d="M9 3.5C12.8659 3.5 16 6.44839 16 10.0844C16 13.7204 9 19.5 9 19.5C9 19.5 2 13.7204 2 10.0844C2 6.44839 5.13413 3.5 9 3.5ZM9.00374 7.22959C9.62398 7.22959 10.2303 7.40695 10.746 7.73923C11.2617 8.07151 11.6637 8.54381 11.901 9.09637C12.1384 9.64893 12.2005 10.2569 12.0795 10.8435C11.9585 11.4301 11.6598 11.969 11.2212 12.3919C10.7826 12.8148 10.2239 13.1028 9.61553 13.2195C9.00721 13.3362 8.37667 13.2763 7.80364 13.0474C7.23061 12.8185 6.74082 12.4309 6.39624 11.9337C6.05165 11.4364 5.86773 10.8517 5.86773 10.2536C5.86773 9.45159 6.19814 8.68242 6.78625 8.11531C7.37436 7.5482 8.17202 7.22959 9.00374 7.22959Z" stroke="white"/>
</svg>
