<svg width="36" height="30" viewBox="0 0 36 30" fill="none" xmlns="http://www.w3.org/2000/svg">
<g clip-path="url(#clip0_838_1078)">
<g opacity="0.3">
<path fill-rule="evenodd" clip-rule="evenodd" d="M0.823373 30H27.6558C27.8743 30 28.0838 29.9124 28.2381 29.7562C28.3924 29.5996 28.4792 29.3876 28.4789 29.1667V19.712L35.5734 15.7641C35.8366 15.6179 36 15.338 36 15.0342C36 14.7301 35.8366 14.4503 35.5734 14.3041L28.4789 10.3559L28.4786 0.83334C28.4789 0.612099 28.3921 0.400351 28.2378 0.243839C28.0835 0.0876064 27.8741 -9.55197e-09 27.6555 0L0.823096 1.17288e-06C0.604575 1.18244e-06 0.395154 0.0876076 0.240841 0.24384C0.0915618 0.395246 0.00571719 0.598344 0.000275594 0.811723L0 0.833341L0.000276834 29.1667C0.000276843 29.3876 0.086805 29.5996 0.241118 29.7562C0.395431 29.9124 0.604852 30 0.823373 30ZM1.00028 29V1H27.4786L27.4789 10.9438L34.8287 15.0341L27.4789 19.1241V29H1.00028Z" fill="white"/>
<path d="M14.9995 13.0769V20.7692H14.0527V13.0769H14.9995Z" fill="white"/>
<path d="M14.9995 9.23071V11.5384H14.0527V9.23071H14.9995Z" fill="white"/>
</g>
</g>
<defs>
<clipPath id="clip0_838_1078">
<rect width="36" height="30" fill="white"/>
</clipPath>
</defs>
</svg>
