<svg width="25" height="25" viewBox="0 0 25 25" fill="none" xmlns="http://www.w3.org/2000/svg">
<path fill-rule="evenodd" clip-rule="evenodd" d="M0.760362 0H24.2551C24.6933 0 25 0.370793 25 0.788279V24.2115C25 24.6754 24.6494 25 24.2551 25H0.760362C0.322197 25 0.0154758 23.7957 0.0154758 23.3782V22.868C0.0154758 22.7289 0.103139 22.6361 0.234584 22.6361H3.73382C3.95288 22.6361 4.17198 22.4505 4.17198 22.1722V14.7944C4.17198 14.5625 3.99671 14.3306 3.73382 14.3306H0.234584C0.103139 14.3306 0.0154758 14.2378 0.0154758 14.0987V10.9014C0.0154758 10.7623 0.103139 10.6695 0.234584 10.6695H3.73382C3.95288 10.6695 4.17198 10.4839 4.17198 10.2056V5.05571L4.21576 2.82779C4.21576 2.59586 4.04054 2.36392 3.7776 2.36392H0.278365C0.146921 2.36392 0.0593074 2.27115 0.0593074 2.13209V1.62183C0.0593074 1.20444 0.366028 0 0.760362 0ZM13.8404 9.30635C15.3871 9.30635 16.6408 8.02907 16.6408 6.45322C16.6408 4.87748 15.3871 3.6 13.8404 3.6C12.2938 3.6 11.04 4.87748 11.04 6.45322C11.04 8.02907 12.2938 9.30635 13.8404 9.30635ZM14.8447 11.3332L18.6108 18.9937C18.939 19.761 18.379 20.6269 17.5099 20.6269H9.99704C9.16663 20.6269 8.60651 19.7806 8.91552 18.9937L12.6816 11.3332C13.0872 10.3493 14.4585 10.3493 14.8447 11.3332Z" fill="#F9A850"/>
<path d="M2.83352 8.38928V4.21941C2.83352 4.08035 2.74591 3.98758 2.61447 3.98758H0.219108C0.0876131 3.98758 0 4.08035 0 4.21941V8.38928C0 8.52844 0.0876131 8.62112 0.219108 8.62112H2.61447C2.74591 8.62112 2.83352 8.52844 2.83352 8.38928Z" fill="#F9A850"/>
<path d="M2.61472 16.0288H0.219357C0.0878628 16.0288 0.00024961 16.1216 0.00024961 16.2608V20.3843C0.00024961 20.5233 0.0878628 20.6161 0.219357 20.6161H2.61472C2.74616 20.6161 2.83377 20.5233 2.83377 20.3843V16.2608C2.83377 16.2014 2.81785 16.1505 2.78934 16.1116C2.78091 16.1002 2.77137 16.0897 2.76079 16.0804C2.75505 16.0753 2.74901 16.0705 2.74267 16.0662C2.70787 16.0422 2.66444 16.0288 2.61472 16.0288Z" fill="#F9A850"/>
</svg>
