<svg width="30" height="30" viewBox="0 0 30 30" fill="none" xmlns="http://www.w3.org/2000/svg">
<path d="M5.2103 7.46493C6.47809 7.46493 7.46375 6.47926 7.46375 5.21145C7.46375 3.94365 6.47809 2.95798 5.2103 2.95798C3.94251 2.95798 2.95685 3.94365 2.95685 5.21145C2.95685 6.47926 3.94251 7.46493 5.2103 7.46493ZM29.1542 14.3664C29.7175 14.9297 30 15.6342 30 16.4788C30 17.323 29.7176 18.0278 29.1542 18.5912L18.5913 29.1542C18.0279 29.7175 17.3235 30 16.4789 30C15.6346 30 14.9299 29.7176 14.3665 29.1542L0.845816 15.6333C0.282454 15.07 0 14.3655 0 13.5209V2.95791C0 1.3385 1.33849 0 2.95788 0H13.5208C14.3666 0 15.0698 0.282438 15.6332 0.845826L29.1542 14.3664Z" fill="#F9A850"/>
</svg>
