<svg width="30" height="30" viewBox="0 0 30 30" fill="none" xmlns="http://www.w3.org/2000/svg">
<path d="M15 8.162e-05C11.0217 8.162e-05 7.20635 1.58046 4.39332 4.39341C1.58038 7.20668 0 11.022 0 15C0 18.9781 1.58038 22.7936 4.39332 25.6067C7.2066 28.4196 11.0219 30 15 30C18.978 30 22.7936 28.4196 25.6066 25.6067C28.4195 22.7934 29.9999 18.9781 29.9999 15C29.9964 11.0227 28.4148 7.20962 25.6024 4.39749C22.7901 1.58536 18.9771 0.00359321 15 8.162e-05ZM21.2276 21.2281C21.0129 21.4431 20.7216 21.5636 20.4179 21.5636C20.1142 21.5636 19.823 21.4431 19.6086 21.2281L13.1906 15.8101C12.9763 15.5954 12.856 15.3038 12.8566 15.0004L13.8566 4.97191C13.8566 4.3406 14.3686 3.8286 15 3.8286C15.6313 3.8286 16.1433 4.3406 16.1433 4.97191V14.543L21.2276 19.6272C21.6633 20.0719 21.6633 20.7833 21.2276 21.2281Z" fill="#F9A850"/>
</svg>
