<svg width="25" height="25" viewBox="0 0 25 25" fill="none" xmlns="http://www.w3.org/2000/svg">
<path d="M13.6366 0C9.41821 0 5.75365 2.28891 3.80268 5.65662C4.6727 5.68286 5.49 6.05119 6.07002 6.65644C7.65198 4.1306 10.4466 2.47322 13.6102 2.47322C18.5404 2.47322 22.5214 6.47237 22.5214 11.366C22.5214 14.5495 20.8341 17.3646 18.303 18.9169C18.7512 19.3379 19.0675 19.864 19.2259 20.4429C19.2786 20.6796 19.3049 20.9428 19.3312 21.1795C22.7322 19.2063 24.9996 15.5492 24.9996 11.366C25.0524 5.10421 19.9376 9.3957e-05 13.6365 9.3957e-05L13.6366 0Z" fill="#F9A850"/>
<path d="M18.2767 8.02451C17.8023 7.55102 17.0113 7.55102 16.5103 8.02451L12.9248 11.6026L11.2638 9.94508C10.7893 9.47159 9.99832 9.47159 9.49735 9.94508C9.02288 10.4186 9.02288 11.2079 9.49735 11.7078L12.0547 14.2599C12.2919 14.4966 12.6084 14.6282 12.9247 14.6282C13.241 14.6282 13.5575 14.4966 13.7947 14.2599L18.2767 9.78727C18.7513 9.28733 18.7513 8.52444 18.2767 8.02451H18.2767Z" fill="#F9A850"/>
<path d="M16.6158 20.2586L13.083 18.4432C12.582 18.18 11.9757 18.3116 11.6329 18.7588L10.341 20.4164C9.07556 19.7324 8.12644 19.1009 7.01914 17.9959C5.83279 16.812 5.19994 15.8384 4.56734 14.6282L6.20189 13.339C6.65006 12.9969 6.7819 12.3918 6.5182 11.8919L4.69901 8.39269C4.38269 7.78761 3.59171 7.57713 3.01169 7.97169L0.770617 9.47145C0.243376 9.81353 -0.0466328 10.4186 0.00614316 11.0501C0.0589238 11.6816 0.138003 12.4972 0.269863 13.0496C0.928973 15.5228 2.51075 18.1274 4.69899 20.3112C6.91356 22.4949 9.49732 24.0734 12.0019 24.7311C12.5557 24.889 13.3729 24.9679 14.0056 24.9943C14.6384 25.047 15.2447 24.7311 15.5875 24.205L17.0376 21.9423C17.433 21.3635 17.2221 20.5743 16.6158 20.2585L16.6158 20.2586Z" fill="#F9A850"/>
</svg>
