<svg width="20" height="20" viewBox="0 0 20 20" fill="none" xmlns="http://www.w3.org/2000/svg">
<path d="M11.0757 2.97244C11.9317 2.33647 12.9514 2 14.0239 2C16.7678 2 19 4.2356 19 6.9837C19 8.05574 18.6653 9.07825 18.0321 9.94069C17.93 10.0789 17.8303 10.2014 17.7264 10.3157L10.0958 17.9596C10.0689 17.9865 10.0337 18 9.99857 18C9.96329 18 9.92819 17.9865 9.90133 17.9596L2.29582 10.3409C2.29367 10.3387 2.27379 10.3161 2.27182 10.3138C2.22092 10.2578 2.17062 10.1993 2.12041 10.1377L1.91476 9.86209C1.31758 9.01605 1 8.02393 1 6.9837C1 4.2356 3.23097 2 5.9734 2C7.0434 2 8.06379 2.33539 8.92427 2.96975C9.33973 3.27805 9.70112 3.64287 10.0009 4.05632C10.2992 3.64215 10.6601 3.27823 11.0757 2.97244Z" stroke="white" stroke-linecap="round"/>
</svg>
