<svg width="39" height="39" viewBox="0 0 39 39" fill="none" xmlns="http://www.w3.org/2000/svg">
<path fill-rule="evenodd" clip-rule="evenodd" d="M12.1364 1.54534C11.1337 2.0649 9.75529 2.94729 7.77005 4.10101C6.57255 4.79447 5.16521 6.69569 5.01338 10.1104C4.86155 13.5255 5.97227 18.4526 9.8559 25.2335C9.85785 25.2378 9.85979 25.2402 9.86173 25.2433C14.1066 31.8273 18.0472 35.2034 21.24 36.786C24.4326 38.3683 26.8724 38.1618 28.1042 37.5252C30.1486 36.4705 31.6426 35.7788 32.6178 35.2144C33.1053 34.9324 33.465 34.6841 33.7036 34.4165C33.9422 34.1488 34.0513 33.8336 33.9769 33.5202C33.828 32.8934 33.1332 32.3326 31.9532 31.4511C30.7757 30.5715 29.0868 29.3981 26.8851 27.7039C26.2382 27.22 25.6681 27.2732 25.0699 27.5715C24.4583 27.895 23.8526 28.4177 23.3305 28.7661C22.9779 28.9594 22.6111 28.7569 22.3142 28.5922C21.8043 28.3271 21.1656 27.8419 20.4644 27.1813C19.0629 25.8614 17.4031 23.8425 15.8608 21.4628C14.4606 19.0076 13.5513 16.7982 13.154 15.1633C12.9553 14.3455 12.8869 13.6704 12.9397 13.196C12.9925 12.7219 13.1479 12.4875 13.3612 12.4094C13.9543 12.1931 14.7387 11.9559 15.3412 11.6014C16.0412 11.1946 16.2464 10.8001 16.1237 10.0093C15.6786 7.35371 15.4526 5.37907 15.2386 3.97185C15.024 2.56124 14.8598 1.71019 14.3622 1.27452C13.7206 0.665557 12.7818 1.21246 12.1362 1.5449L12.1364 1.54534ZM14.0516 1.59481C14.3384 1.84583 14.5728 2.63825 14.7852 4.03438C14.9975 5.43083 15.2258 7.42089 15.6744 10.0967C15.8026 10.6844 15.566 10.9767 15.1001 11.232C14.574 11.5417 13.8094 11.7807 13.1972 12.0038C12.7669 12.1608 12.5458 12.5968 12.4843 13.1504C12.4228 13.7041 12.5021 14.4141 12.708 15.2609C13.1195 16.9544 14.0444 19.1909 15.4611 21.6747C15.463 21.679 15.4653 21.6817 15.4673 21.6851C17.0267 24.0921 18.702 26.1335 20.142 27.4897C20.862 28.1678 21.5212 28.675 22.0948 28.9733C22.6257 29.2772 23.1318 29.3755 23.5947 29.1217C24.1541 28.7481 24.756 28.2356 25.2937 27.9511C25.8217 27.6552 26.1622 27.7333 26.5815 28.0294C28.7995 29.7368 30.502 30.9197 31.6704 31.7926C32.8387 32.6656 33.4448 33.2545 33.5305 33.6159C33.5736 33.7965 33.5338 33.9345 33.3547 34.1354C33.1757 34.3364 32.8494 34.5714 32.3803 34.843C31.4414 35.3862 29.9393 36.084 27.8864 37.1431C26.8453 37.681 24.546 37.9333 21.4534 36.4004C18.3613 34.8679 14.471 31.5557 10.2567 25.0206C6.40221 18.2897 5.3248 13.4362 5.47216 10.1288C5.61913 6.82061 6.99826 5.05763 8.00962 4.47204L8.00994 4.47174C10.0029 3.31338 11.3908 2.42701 12.3561 1.92708C12.9463 1.59463 13.6424 1.20597 14.0519 1.59463L14.0516 1.59481Z" fill="white"/>
<path fill-rule="evenodd" clip-rule="evenodd" d="M22.8814 14.6202C22.7668 14.623 22.6723 14.7056 22.6593 14.8135C22.6467 14.9216 22.7198 15.0221 22.8309 15.0485C24.9569 15.588 26.2159 17.653 25.6432 19.6708V19.6711C25.6264 19.727 25.6342 19.7869 25.6643 19.8376C25.6944 19.8883 25.7449 19.9252 25.8041 19.9405C25.8634 19.9556 25.9265 19.9476 25.9793 19.9181C26.0324 19.8886 26.0706 19.8404 26.0858 19.7842C26.7229 17.5394 25.3147 15.2286 22.9494 14.6285C22.9274 14.6227 22.9044 14.6199 22.8814 14.6202Z" fill="white"/>
<path fill-rule="evenodd" clip-rule="evenodd" d="M23.7615 11.5102C23.6473 11.5126 23.5521 11.595 23.5395 11.7031C23.5265 11.8113 23.6 11.9117 23.711 11.9385C27.6428 12.9389 29.9744 16.7703 28.9203 20.5064H28.92C28.9041 20.562 28.9125 20.6216 28.9426 20.6717C28.9731 20.7218 29.0232 20.7584 29.0822 20.7731C29.1408 20.7882 29.2036 20.7802 29.2563 20.7513C29.3091 20.7224 29.3473 20.6748 29.3629 20.6189C30.481 16.656 28.0005 12.5795 23.8295 11.5184C23.8074 11.5126 23.7845 11.5098 23.7615 11.5105L23.7615 11.5102Z" fill="white"/>
<path fill-rule="evenodd" clip-rule="evenodd" d="M24.7056 8.16969C24.591 8.17246 24.4961 8.2548 24.4832 8.36295C24.4702 8.4711 24.5437 8.57157 24.6547 8.59799C30.5297 10.0943 34.0166 15.822 32.4397 21.3976C32.4223 21.4538 32.4294 21.5143 32.4595 21.5656C32.4896 21.6169 32.5404 21.6541 32.6 21.6695C32.6599 21.6845 32.7233 21.6762 32.7764 21.6464C32.8298 21.6163 32.8677 21.5675 32.8823 21.5103C34.523 15.7074 30.8878 9.73484 24.7736 8.17825C24.7516 8.17241 24.7286 8.16965 24.7056 8.16996L24.7056 8.16969Z" fill="white"/>
<path fill-rule="evenodd" clip-rule="evenodd" d="M12.1364 1.54534C11.1337 2.0649 9.75529 2.94729 7.77005 4.10101C6.57255 4.79447 5.16521 6.69569 5.01338 10.1104C4.86155 13.5255 5.97227 18.4526 9.8559 25.2335C9.85785 25.2378 9.85979 25.2402 9.86173 25.2433C14.1066 31.8273 18.0472 35.2034 21.24 36.786C24.4326 38.3683 26.8724 38.1618 28.1042 37.5252C30.1486 36.4705 31.6426 35.7788 32.6178 35.2144C33.1053 34.9324 33.465 34.6841 33.7036 34.4165C33.9422 34.1488 34.0513 33.8336 33.9769 33.5202C33.828 32.8934 33.1332 32.3326 31.9532 31.4511C30.7757 30.5715 29.0868 29.3981 26.8851 27.7039C26.2382 27.22 25.6681 27.2732 25.0699 27.5715C24.4583 27.895 23.8526 28.4177 23.3305 28.7661C22.9779 28.9594 22.6111 28.7569 22.3142 28.5922C21.8043 28.3271 21.1656 27.8419 20.4644 27.1813C19.0629 25.8614 17.4031 23.8425 15.8608 21.4628C14.4606 19.0076 13.5513 16.7982 13.154 15.1633C12.9553 14.3455 12.8869 13.6704 12.9397 13.196C12.9925 12.7219 13.1479 12.4875 13.3612 12.4094C13.9543 12.1931 14.7387 11.9559 15.3412 11.6014C16.0412 11.1946 16.2464 10.8001 16.1237 10.0093C15.6786 7.35371 15.4526 5.37907 15.2386 3.97185C15.024 2.56124 14.8598 1.71019 14.3622 1.27452C13.7206 0.665557 12.7818 1.21246 12.1362 1.5449L12.1364 1.54534ZM14.0516 1.59481C14.3384 1.84583 14.5728 2.63825 14.7852 4.03438C14.9975 5.43083 15.2258 7.42089 15.6744 10.0967C15.8026 10.6844 15.566 10.9767 15.1001 11.232C14.574 11.5417 13.8094 11.7807 13.1972 12.0038C12.7669 12.1608 12.5458 12.5968 12.4843 13.1504C12.4228 13.7041 12.5021 14.4141 12.708 15.2609C13.1195 16.9544 14.0444 19.1909 15.4611 21.6747C15.463 21.679 15.4653 21.6817 15.4673 21.6851C17.0267 24.0921 18.702 26.1335 20.142 27.4897C20.862 28.1678 21.5212 28.675 22.0948 28.9733C22.6257 29.2772 23.1318 29.3755 23.5947 29.1217C24.1541 28.7481 24.756 28.2356 25.2937 27.9511C25.8217 27.6552 26.1622 27.7333 26.5815 28.0294C28.7995 29.7368 30.502 30.9197 31.6704 31.7926C32.8387 32.6656 33.4448 33.2545 33.5305 33.6159C33.5736 33.7965 33.5338 33.9345 33.3547 34.1354C33.1757 34.3364 32.8494 34.5714 32.3803 34.843C31.4414 35.3862 29.9393 36.084 27.8864 37.1431C26.8453 37.681 24.546 37.9333 21.4534 36.4004C18.3613 34.8679 14.471 31.5557 10.2567 25.0206C6.40221 18.2897 5.3248 13.4362 5.47216 10.1288C5.61913 6.82061 6.99826 5.05763 8.00962 4.47204L8.00994 4.47174C10.0029 3.31338 11.3908 2.42701 12.3561 1.92708C12.9463 1.59463 13.6424 1.20597 14.0519 1.59463L14.0516 1.59481Z" stroke="white" stroke-width="0.5"/>
<path fill-rule="evenodd" clip-rule="evenodd" d="M22.8814 14.6202C22.7668 14.623 22.6723 14.7056 22.6593 14.8135C22.6467 14.9216 22.7198 15.0221 22.8309 15.0485C24.9569 15.588 26.2159 17.653 25.6432 19.6708V19.6711C25.6264 19.727 25.6342 19.7869 25.6643 19.8376C25.6944 19.8883 25.7449 19.9252 25.8041 19.9405C25.8634 19.9556 25.9265 19.9476 25.9793 19.9181C26.0324 19.8886 26.0706 19.8404 26.0858 19.7842C26.7229 17.5394 25.3147 15.2286 22.9494 14.6285C22.9274 14.6227 22.9044 14.6199 22.8814 14.6202Z" stroke="white" stroke-width="0.5"/>
<path fill-rule="evenodd" clip-rule="evenodd" d="M23.7615 11.5102C23.6473 11.5126 23.5521 11.595 23.5395 11.7031C23.5265 11.8113 23.6 11.9117 23.711 11.9385C27.6428 12.9389 29.9744 16.7703 28.9203 20.5064H28.92C28.9041 20.562 28.9125 20.6216 28.9426 20.6717C28.9731 20.7218 29.0232 20.7584 29.0822 20.7731C29.1408 20.7882 29.2036 20.7802 29.2563 20.7513C29.3091 20.7224 29.3473 20.6748 29.3629 20.6189C30.481 16.656 28.0005 12.5795 23.8295 11.5184C23.8074 11.5126 23.7845 11.5098 23.7615 11.5105L23.7615 11.5102Z" stroke="white" stroke-width="0.5"/>
<path fill-rule="evenodd" clip-rule="evenodd" d="M24.7056 8.16969C24.591 8.17246 24.4961 8.2548 24.4832 8.36295C24.4702 8.4711 24.5437 8.57157 24.6547 8.59799C30.5297 10.0943 34.0166 15.822 32.4397 21.3976C32.4223 21.4538 32.4294 21.5143 32.4595 21.5656C32.4896 21.6169 32.5404 21.6541 32.6 21.6695C32.6599 21.6845 32.7233 21.6762 32.7764 21.6464C32.8298 21.6163 32.8677 21.5675 32.8823 21.5103C34.523 15.7074 30.8878 9.73484 24.7736 8.17825C24.7516 8.17241 24.7286 8.16965 24.7056 8.16996L24.7056 8.16969Z" stroke="white" stroke-width="0.5"/>
</svg>
