<svg width="16" height="16" viewBox="0 0 16 16" fill="none" xmlns="http://www.w3.org/2000/svg">
<path fill-rule="evenodd" clip-rule="evenodd" d="M4.33786 6.21007C4.31028 5.84375 4.38216 5.47677 4.54603 5.14768C4.59595 5.01659 4.66533 4.8937 4.75186 4.78312C4.90632 4.57496 5.11271 4.41063 5.35056 4.30642C5.35056 4.30642 6.05747 4.23728 6.11863 4.33196C6.44623 4.89853 6.72028 5.4942 6.93726 6.11129C7.04548 6.51487 6.47738 6.97552 6.47738 6.97552C6.47738 6.97552 6.11746 7.15845 6.47738 7.61101C6.74555 7.94885 7.20192 8.53759 7.47598 8.75496C7.76547 8.99099 8.07345 9.20357 8.39696 9.39069C9.06622 9.76041 9.19089 9.72103 9.19089 9.72103C9.19089 9.72103 9.31439 9.7713 9.65078 9.3144C9.83074 9.07183 10.0272 8.78707 10.2142 8.72965C10.4306 8.66368 12.1784 9.66373 12.109 9.59388C12.2314 9.71681 12.1349 10.1109 12.1349 10.1109C12.1349 10.1109 12.1726 10.5518 11.5068 11.0601C11.0681 11.3954 10.3424 11.4752 10.3424 11.4752C9.88545 11.4425 9.43636 11.3398 9.01093 11.1705C8.30168 10.9041 7.55242 10.68 6.57969 9.79791C5.90396 9.18658 5.31692 8.48455 4.8354 7.71202C4.32375 6.83314 4.33786 6.21007 4.33786 6.21007ZM8.15347 15.6441C6.79728 15.646 5.46382 15.297 4.28374 14.6312L0 16L1.40792 11.8322C0.519424 10.3498 0.148235 8.6161 0.352202 6.90147C0.556168 5.18685 1.32382 3.58764 2.53551 2.35317C3.74719 1.1187 5.33481 0.318344 7.05084 0.0768787C8.76686 -0.164586 10.5149 0.16641 12.0223 1.01827C13.5298 1.87012 14.7119 3.19496 15.3846 4.78624C16.0572 6.37751 16.1824 8.1458 15.7408 9.81542C15.2991 11.485 14.3154 12.9621 12.943 14.0165C11.5705 15.0708 9.88653 15.6431 8.15347 15.6441ZM8.14052 1.33216C6.93523 1.3277 5.75206 1.65444 4.72108 2.27648C3.69009 2.89851 2.85122 3.79173 2.29673 4.85794C1.74224 5.92415 1.49359 7.12204 1.57812 8.31991C1.66264 9.51778 2.07709 10.6692 2.77586 11.6477L2.15129 13.5343L2.15364 13.5361L1.97132 14.0682L3.03109 13.7547C3.0294 13.7527 3.02741 13.751 3.0252 13.7496L4.479 13.2937C5.3302 13.8666 6.30443 14.2325 7.32338 14.362C8.34233 14.4915 9.37756 14.381 10.3459 14.0394C11.3141 13.6978 12.1885 13.1346 12.8985 12.3951C13.6086 11.6556 14.1346 10.7604 14.4343 9.7815C14.7339 8.80261 14.7988 7.76734 14.6238 6.7589C14.4488 5.75047 14.0387 4.79702 13.4266 3.9752C12.8144 3.15338 12.0173 2.48613 11.0992 2.02709C10.1811 1.56805 9.16773 1.33003 8.14052 1.33216Z" fill="#00C232"/>
</svg>
