<svg width="56" height="57" viewBox="0 0 56 57" fill="none" xmlns="http://www.w3.org/2000/svg">
<g clip-path="url(#clip0_4210_74)">
<path opacity="0.5" d="M13.9324 21.8457V13.2433C13.9324 6.21686 19.7757 0.5 26.9583 0.5H28.5383C35.7213 0.5 41.5641 6.21661 41.5641 13.2433V21.8457M42.9256 57.4998H12.5744C9.77625 57.4998 7.5 55.2733 7.5 52.5369V26.8085C7.5 24.0721 9.77625 21.8457 12.5744 21.8457H42.9256C45.7238 21.8457 48 24.0721 48 26.8085V52.5378C47.9994 55.273 45.7231 57.4998 42.9256 57.4998ZM29.2981 49.0873H26.2044C25.0031 49.0873 24.0261 48.133 24.0261 46.9573C24.0261 46.8934 24.0346 46.8307 24.0515 46.7692L25.7574 40.5834C24.2657 39.5054 21.891 37.8234 21.891 35.988C21.891 32.8286 24.5192 30.2579 27.7506 30.2579C30.9819 30.2579 33.6084 32.8286 33.6084 35.988C33.6084 37.8234 31.2331 39.5049 29.742 40.5828L31.4497 46.7698C31.4672 46.8307 31.4751 46.8934 31.4751 46.9579C31.4751 48.1329 30.4977 49.0873 29.2981 49.0873Z" stroke="white" stroke-width="2" stroke-miterlimit="10"/>
</g>
<defs>
<clipPath id="clip0_4210_74">
<rect width="56" height="57" fill="white"/>
</clipPath>
</defs>
</svg>
