<svg width="12" height="12" viewBox="0 0 12 12" fill="none" xmlns="http://www.w3.org/2000/svg">
<path d="M12 4.71984C12 4.32 11.6837 3.99636 11.2878 3.97956C11.2883 3.97812 11.2883 3.97668 11.2889 3.97536H7.85532L6.70356 0.52092C6.70308 0.52092 6.70248 0.52104 6.70188 0.52104C6.60696 0.21996 6.32856 0 5.99604 0C5.64348 0 5.34996 0.24576 5.27328 0.57468C5.27244 0.57456 5.27148 0.57468 5.27076 0.57444L4.13676 3.97536H0.76032C0.75456 3.97524 0.74928 3.97368 0.74364 3.97368C0.33276 3.97356 0 4.30656 0 4.7172C0 4.94328 0.10284 5.1432 0.2622 5.27964C0.26136 5.28084 0.26088 5.28216 0.25992 5.28336L3.1488 7.5042L2.07348 10.9462C2.0298 11.0408 2.00364 11.1452 2.00364 11.2566C2.00364 11.6672 2.33664 12 2.7474 12C2.916 12 3.06984 11.9419 3.19464 11.8474C3.19596 11.8486 3.19764 11.8494 3.19896 11.8505L6.00324 9.7008L8.70756 11.7788C8.84256 11.9153 9.0294 12 9.2364 12C9.64728 12 9.98016 11.6672 9.98016 11.2566C9.98016 11.1668 9.96168 11.0819 9.93252 11.0021C9.93444 11.0018 9.936 11.0009 9.93792 11.0006L8.84868 7.51872L11.6948 5.31888C11.6946 5.31876 11.6942 5.31852 11.694 5.31828C11.8786 5.18304 12 4.96632 12 4.71984Z" fill="#6C6C6C"/>
</svg>
