<svg width="32" height="32" viewBox="0 0 32 32" fill="none" xmlns="http://www.w3.org/2000/svg">
<path d="M15.1992 18.1072C15.3547 18.199 15.5477 18.199 15.7029 18.1072C16.1488 17.8661 20.0303 15.663 20.1771 13.271V13.2712C20.2425 12.5081 19.973 11.7545 19.4388 11.2059C18.9047 10.6573 18.1584 10.3679 17.3941 10.413C16.6296 10.458 15.9224 10.8329 15.4564 11.4405C14.9895 10.8322 14.2816 10.4563 13.5159 10.4109C12.7504 10.3655 12.003 10.6549 11.4674 11.2038C10.9318 11.7527 10.661 12.5069 10.7251 13.2712C10.8719 15.663 14.7534 17.866 15.1993 18.1072L15.1992 18.1072Z" fill="#7E0707"/>
<path d="M23.1736 5.11084H8.05014C7.47723 5.11084 6.92767 5.32936 6.52236 5.71825C6.11727 6.10737 5.88965 6.63493 5.88965 7.18491V24.8145C5.88965 25.3645 6.11727 25.8921 6.52236 26.2812C6.9277 26.6701 7.47724 26.8886 8.05014 26.8886H23.1736C23.7465 26.8886 24.2961 26.6701 24.7014 26.2812C25.1065 25.8921 25.3341 25.3645 25.3341 24.8145V7.18491C25.3341 6.63492 25.1065 6.10734 24.7014 5.71825C24.296 5.32936 23.7465 5.11084 23.1736 5.11084ZM23.1736 21.7034H8.05014V7.18491H23.1736V21.7034Z" fill="#7E0707"/>
<path d="M27.6631 17.6837L26.8896 16.7773V22.2218L27.7804 21.2858L27.7802 21.2856C28.2249 20.8077 28.4661 20.1425 28.4438 19.4557C28.4214 18.7688 28.1376 18.1249 27.663 17.6837L27.6631 17.6837Z" fill="#7E0707"/>
<path d="M1.02421 17.9783L5.11051 22.2214V19.1825L2.57246 16.5451C3.1701 15.9938 4.50315 14.7612 5.11051 14.1994V11.3325L1.11469 15.0283L1.11445 15.0281C0.702805 15.4072 0.461727 15.9314 0.444822 16.4848C0.42772 17.0382 0.636273 17.5755 1.02417 17.9783L1.02421 17.9783Z" fill="#7E0707"/>
<path d="M13.5366 30.8972C13.9116 31.3026 14.4288 31.5391 14.9747 31.555C15.5204 31.5708 16.0499 31.3643 16.4468 30.9815L19.8875 27.667H10.5542L13.5366 30.8972Z" fill="#7E0707"/>
<path d="M19.8053 3.5552H22.9994L20.3187 1.05899H20.319C19.895 0.665077 19.3206 0.444092 18.7216 0.444092C18.123 0.444092 17.5485 0.665095 17.1245 1.05899L14.4438 3.5552H17.638L18.7216 2.54613L19.8053 3.5552Z" fill="#7E0707"/>
<path d="M26.8896 7.44409V10.573L29.4637 13.293L26.8896 16.013V16.3888C27.4852 16.3281 28.0154 17.184 28.3912 17.5552L30.9442 14.8575C31.3361 14.4421 31.5563 13.8796 31.5563 13.293C31.5563 12.7063 31.3361 12.1439 30.9442 11.7285L26.8896 7.44409Z" fill="#7E0707"/>
</svg>
