<svg width="22" height="22" viewBox="0 0 22 22" fill="none" xmlns="http://www.w3.org/2000/svg">
<g opacity="0.8">
<path d="M21 8.02182C21 7.43586 20.7541 6.87391 20.3163 6.45958C19.8785 6.04525 19.2848 5.81248 18.6657 5.81248H15.8319L15.5308 4.67247C15.4044 4.19471 15.1129 3.77063 14.7026 3.46762C14.2924 3.1646 13.7869 3.00001 13.2666 3H8.73343C8.21305 3.00001 7.7076 3.1646 7.29737 3.46762C6.88713 3.77063 6.59564 4.19471 6.46919 4.67247L6.16807 5.81248H3.33427C2.71518 5.81248 2.12145 6.04525 1.68369 6.45958C1.24593 6.87391 1 7.43586 1 8.02182V16.7907C1 17.0808 1.06038 17.3681 1.17769 17.6361C1.29499 17.9042 1.46693 18.1477 1.68369 18.3529C1.90045 18.5581 2.15778 18.7208 2.44098 18.8318C2.72419 18.9429 3.02773 19 3.33427 19H18.6657C18.9723 19 19.2758 18.9429 19.559 18.8318C19.8422 18.7208 20.0996 18.5581 20.3163 18.3529C20.5331 18.1477 20.705 17.9042 20.8223 17.6361C20.9396 17.3681 21 17.0808 21 16.7907V8.02182Z" stroke="#F9A850"/>
<path d="M11 7.29056C10.0305 7.29056 9.08275 7.56267 8.27663 8.07247C7.47051 8.58228 6.84221 9.30689 6.47119 10.1547C6.10017 11.0024 6.0031 11.9353 6.19224 12.8353C6.38138 13.7353 6.84825 14.562 7.5338 15.2109C8.21935 15.8597 9.0928 16.3016 10.0437 16.4806C10.9946 16.6596 11.9802 16.5678 12.8759 16.2166C13.7716 15.8654 14.5372 15.2708 15.0758 14.5078C15.6145 13.7448 15.902 12.8478 15.902 11.9302C15.8977 10.7009 15.3798 9.52318 14.4615 8.65397C13.5431 7.78476 12.2988 7.29464 11 7.29056Z" stroke="#F9A850"/>
</g>
</svg>
