<svg width="231" height="231" viewBox="0 0 231 231" fill="none" xmlns="http://www.w3.org/2000/svg">
<path d="M215.613 40.693C215.613 30.288 204.867 22.544 182.759 17.017C164.659 12.492 140.716 10 115.34 10C89.9649 10 66.0209 12.492 47.9209 17.017C25.8129 22.544 15.0659 30.288 15.0659 40.693C15.0659 44.543 16.5419 48.028 19.5159 51.172L87.7609 133.949V213.179C87.7609 215.774 89.1019 218.184 91.3069 219.552C92.5139 220.301 93.8849 220.679 95.2609 220.679C96.3989 220.679 97.5389 220.42 98.5919 219.899L138.667 200.036C141.217 198.772 142.832 196.173 142.836 193.326L142.913 133.954L211.167 51.167C214.139 48.024 215.613 44.542 215.613 40.693ZM54.9399 30.767C71.4669 27.048 92.9169 25 115.34 25C137.763 25 159.214 27.048 175.739 30.767C193.989 34.874 199.119 39.288 200.346 40.693C199.118 42.098 193.989 46.512 175.739 50.619C159.214 54.338 137.762 56.386 115.34 56.386C92.9179 56.386 71.4669 54.338 54.9399 50.62C36.6909 46.513 31.5599 42.099 30.3329 40.694C31.5599 39.288 36.6909 34.874 54.9399 30.767ZM129.631 126.486C128.526 127.827 127.92 129.509 127.918 131.247L127.843 188.66L102.762 201.092V131.257C102.762 129.516 102.157 127.829 101.049 126.486L50.3059 64.938C68.0999 69.1 91.0579 71.387 115.34 71.387C139.623 71.387 162.58 69.1 180.374 64.938L129.631 126.486Z" fill="black"/>
</svg>
